<?xml version="1.0" standalone="no"?>
<!DOCTYPE svg PUBLIC "-//W3C//DTD SVG 20010904//EN"
 "http://www.w3.org/TR/2001/REC-SVG-20010904/DTD/svg10.dtd">
<svg version="1.0" xmlns="http://www.w3.org/2000/svg"
 width="2000.000000pt" height="1500.000000pt" viewBox="0 0 2000.000000 1500.000000"
 preserveAspectRatio="xMidYMid meet">

<g transform="translate(0.000000,1500.000000) scale(0.100000,-0.100000)"
fill="#000000" stroke="none">
<path d="M2869 8476 c-82 -29 -142 -70 -202 -136 -274 -305 -61 -796 348 -803
148 -2 245 40 245 106 -1 36 -15 58 -48 76 -20 10 -35 10 -88 -5 -167 -45
-319 25 -390 180 -23 52 -26 67 -22 140 7 127 67 219 176 273 49 24 69 28 142
28 68 0 94 -5 132 -24 58 -28 121 -87 146 -138 11 -21 149 -396 307 -833 167
-463 296 -804 308 -817 26 -29 86 -31 111 -4 9 10 150 385 312 832 181 501
305 829 322 854 138 198 444 170 552 -50 20 -41 25 -65 25 -135 0 -73 -4 -93
-28 -142 -69 -141 -235 -210 -389 -163 -54 16 -101 6 -118 -25 -16 -30 -11
-79 10 -100 30 -30 125 -54 215 -53 190 1 348 104 434 283 35 74 36 77 36 200
0 124 0 126 -37 203 -50 105 -130 185 -235 235 -77 37 -79 37 -203 37 -123 0
-126 -1 -200 -36 -86 -41 -164 -108 -209 -177 -18 -29 -130 -324 -282 -743
-138 -382 -254 -697 -258 -701 -4 -4 -119 302 -255 680 -137 378 -257 703
-267 723 -53 107 -168 202 -286 239 -93 29 -217 27 -304 -4z"/>
<path d="M5791 8199 c-30 -49 -33 -124 -29 -764 3 -574 4 -591 24 -625 14 -25
27 -35 45 -35 17 0 29 9 41 35 17 32 18 86 18 690 0 604 -1 658 -18 690 -23
48 -55 52 -81 9z"/>
<path d="M6733 8218 c-4 -7 -107 -264 -229 -571 l-222 -558 77 3 76 3 70 182
c39 101 75 187 81 193 7 7 89 9 228 8 l218 -3 38 -95 c20 -52 54 -139 75 -192
l37 -98 74 0 c41 0 74 1 74 3 0 1 -101 256 -224 567 l-223 565 -71 3 c-49 2
-73 -1 -79 -10z m167 -396 c45 -117 80 -215 77 -218 -2 -2 -81 -3 -175 -2
l-170 3 85 223 c47 123 89 219 93 215 4 -4 45 -104 90 -221z"/>
<path d="M8159 8201 c-20 -20 -29 -39 -29 -61 0 -22 9 -41 29 -61 20 -20 39
-29 61 -29 22 0 41 9 61 29 20 20 29 39 29 61 0 22 -9 41 -29 61 -20 20 -39
29 -61 29 -22 0 -41 -9 -61 -29z"/>
<path d="M10590 7656 l0 -566 223 0 c122 0 251 5 287 11 129 20 220 80 267
177 24 49 28 69 27 142 0 68 -5 95 -23 133 -28 58 -100 123 -152 139 -46 13
-49 22 -10 37 39 17 87 68 106 114 23 55 21 165 -3 219 -10 24 -37 60 -60 80
-70 63 -112 71 -404 76 l-258 4 0 -566z m405 455 c152 -15 198 -57 193 -177
-3 -59 -8 -77 -30 -107 -45 -57 -95 -71 -272 -71 l-151 -1 -3 170 c-1 93 0
175 2 182 6 15 129 17 261 4z m112 -484 c58 -22 97 -52 121 -95 49 -89 36
-188 -33 -258 -62 -62 -112 -74 -307 -74 l-158 0 0 218 c0 120 3 222 8 226 13
15 324 0 369 -17z"/>
<path d="M13380 7655 l0 -565 65 0 65 0 0 198 0 197 88 -90 c48 -49 133 -139
189 -198 l102 -108 75 3 75 3 -194 205 c-107 113 -195 208 -195 213 0 4 71 79
157 168 l157 160 -41 41 -40 40 -119 -123 c-66 -68 -150 -155 -187 -194 l-67
-70 0 343 0 342 -65 0 -65 0 0 -565z"/>
<path d="M14960 7655 l0 -565 65 0 65 0 0 258 0 257 49 66 c27 37 64 78 83 92
101 78 238 47 267 -59 7 -24 11 -152 11 -326 l0 -288 66 0 66 0 -4 313 c-4
292 -5 315 -26 367 -41 104 -109 149 -223 150 -103 0 -180 -47 -266 -165 l-22
-30 -1 248 0 247 -65 0 -65 0 0 -565z"/>
<path d="M7819 7916 c-57 -20 -105 -63 -151 -134 l-43 -67 -6 57 c-3 32 -12
79 -19 104 l-13 46 -49 -6 c-75 -10 -81 -14 -73 -50 21 -101 25 -172 25 -458
l0 -318 70 0 70 0 0 242 0 241 36 66 c68 125 123 159 234 146 l57 -7 6 39 c11
65 8 100 -9 107 -26 10 -97 6 -135 -8z"/>
<path d="M8779 7917 c-152 -43 -233 -157 -259 -363 -30 -238 65 -417 249 -471
71 -20 216 -13 320 17 105 30 102 26 80 86 l-20 52 -77 -25 c-107 -35 -239
-37 -299 -5 -69 36 -103 95 -119 205 l-6 47 291 0 291 0 0 68 c0 121 -37 234
-100 305 -65 74 -239 116 -351 84z m212 -130 c34 -18 50 -36 71 -78 14 -30 29
-73 31 -96 l5 -43 -219 0 -219 0 0 23 c0 37 26 113 50 146 34 49 84 70 166 71
55 0 80 -5 115 -23z"/>
<path d="M9580 7914 c-107 -29 -166 -89 -176 -181 -12 -94 34 -181 116 -223
20 -10 88 -33 151 -51 139 -40 179 -71 179 -138 0 -81 -45 -127 -140 -142 -53
-8 -151 5 -225 31 l-52 18 -22 -45 c-12 -24 -19 -48 -17 -52 3 -4 38 -19 78
-32 61 -20 94 -24 194 -24 119 0 122 1 190 35 53 27 74 45 97 81 34 55 45 138
27 195 -29 92 -87 133 -251 180 -155 44 -188 68 -189 139 0 76 53 115 158 115
50 0 134 -16 182 -35 11 -4 22 7 38 40 12 25 22 47 22 49 0 8 -59 27 -125 41
-87 18 -164 18 -235 -1z"/>
<path d="M11776 7904 c-36 -11 -65 -31 -107 -73 -49 -49 -61 -69 -81 -132 -32
-103 -33 -315 -1 -401 48 -130 126 -197 256 -219 184 -31 339 45 397 196 29
74 40 284 20 374 -29 131 -92 212 -197 251 -66 25 -213 26 -287 4z m240 -103
c87 -40 126 -132 126 -301 0 -223 -69 -319 -228 -320 -94 0 -140 29 -184 115
-35 68 -35 68 -35 204 0 120 3 142 23 187 27 59 76 111 118 124 51 15 136 11
180 -9z"/>
<path d="M12657 7903 c-116 -39 -190 -151 -210 -318 -28 -241 50 -427 203
-487 74 -28 212 -30 289 -4 76 26 151 102 180 180 48 131 48 322 0 450 -29 79
-96 147 -172 175 -72 26 -217 28 -290 4z m238 -102 c91 -41 129 -131 129 -301
0 -167 -44 -270 -131 -306 -39 -17 -140 -18 -180 -3 -98 37 -153 174 -140 354
13 184 87 274 227 274 32 0 72 -7 95 -18z"/>
<path d="M14302 7902 c-97 -35 -145 -100 -146 -198 0 -48 6 -70 27 -107 36
-61 90 -92 235 -134 134 -40 167 -60 181 -111 28 -100 -54 -182 -184 -182 -34
0 -142 23 -210 45 -17 5 -24 -2 -42 -39 l-22 -45 77 -25 c102 -32 200 -41 281
-26 156 28 232 105 232 235 0 77 -17 121 -65 163 -44 38 -80 54 -196 86 -96
26 -124 38 -157 69 -50 45 -34 140 29 173 42 23 161 22 233 0 28 -9 55 -16 61
-16 5 0 20 20 31 43 l21 44 -56 18 c-85 28 -261 31 -330 7z"/>
<path d="M16036 7904 c-36 -11 -65 -31 -107 -73 -80 -81 -104 -156 -104 -331
0 -259 86 -388 278 -421 185 -31 340 46 396 196 43 115 43 331 0 447 -30 82
-94 147 -172 177 -70 26 -214 28 -291 5z m240 -103 c86 -39 126 -130 127 -291
1 -125 -14 -195 -55 -251 -38 -53 -95 -78 -174 -79 -92 0 -140 29 -182 111
-29 56 -34 78 -39 161 -11 190 44 328 143 358 51 15 136 11 180 -9z"/>
<path d="M16785 7906 c-36 -9 -49 -16 -45 -27 3 -7 6 -260 8 -561 l3 -548 64
0 65 0 0 161 0 160 58 -8 c83 -12 190 -9 243 6 105 29 191 133 220 264 21 95
17 268 -9 352 -46 152 -119 215 -249 215 -104 0 -181 -49 -224 -143 -18 -39
-39 -35 -39 8 0 53 -20 135 -33 134 -7 0 -34 -6 -62 -13z m422 -122 c55 -36
90 -180 80 -329 -16 -225 -118 -303 -344 -264 l-63 11 0 185 0 186 30 59 c53
104 94 145 168 168 34 12 100 3 129 -16z"/>
<path d="M8150 7500 l0 -410 70 0 70 0 0 410 0 410 -70 0 -70 0 0 -410z"/>
</g>
</svg>
